<?xml version="1.0" standalone="no"?>
<!DOCTYPE svg PUBLIC "-//W3C//DTD SVG 20010904//EN"
 "http://www.w3.org/TR/2001/REC-SVG-20010904/DTD/svg10.dtd">
<svg version="1.0" xmlns="http://www.w3.org/2000/svg"
 width="700.000000pt" height="700.000000pt" viewBox="0 0 700.000000 700.000000"
 preserveAspectRatio="xMidYMid meet">
<metadata>
Created by potrace 1.14, written by Peter Selinger 2001-2017
</metadata>
<g transform="translate(0.000000,700.000000) scale(0.100000,-0.100000)"
fill="#000000" stroke="none">
<path d="M1925 6344 c-345 -60 -674 -279 -857 -569 -86 -137 -133 -251 -170
-415 l-23 -105 0 -1725 c0 -949 3 -1752 8 -1785 12 -92 16 -113 49 -220 31
-103 115 -287 146 -321 10 -10 28 -35 42 -54 79 -115 265 -273 405 -343 174
-87 291 -127 432 -147 139 -19 373 -8 488 24 133 36 325 118 325 137 0 4 42
32 93 62 50 29 151 87 222 129 72 42 146 85 165 96 159 91 239 137 325 187 55
32 114 66 130 75 17 9 75 43 130 75 55 32 159 92 230 133 72 41 256 148 410
237 154 89 341 197 415 240 74 43 149 86 165 95 17 10 75 44 130 75 55 32 116
67 135 78 19 11 58 33 85 49 267 153 393 261 515 441 47 69 130 217 129 230 0
1 5 16 11 32 71 186 97 477 60 665 -6 30 -14 68 -17 84 -9 54 -65 200 -106
281 -57 110 -119 196 -206 288 -93 98 -182 164 -341 256 -69 40 -132 76 -140
81 -8 5 -51 30 -95 56 -44 26 -100 58 -124 72 -25 14 -68 38 -95 55 -28 16
-69 40 -91 52 -22 13 -182 105 -355 205 -327 190 -358 208 -425 245 -22 13
-101 59 -176 102 -74 44 -142 82 -150 86 -8 4 -30 17 -49 28 -19 12 -48 29
-65 38 -16 9 -41 24 -55 32 -14 9 -90 53 -170 99 -80 46 -181 105 -225 131
-44 26 -102 59 -130 75 -27 15 -131 75 -230 132 -248 145 -326 178 -512 218
-103 22 -333 26 -438 8z"/>
</g>
</svg>
