<?xml version="1.0" encoding="utf-8"?>
<!-- Generator: Adobe Illustrator 23.0.1, SVG Export Plug-In . SVG Version: 6.00 Build 0)  -->
<svg version="1.1" id="Layer_1" xmlns="http://www.w3.org/2000/svg" xmlns:xlink="http://www.w3.org/1999/xlink" x="0px" y="0px"
	 viewBox="0 0 85 85" style="enable-background:new 0 0 85 85;" xml:space="preserve">
<style type="text/css">
	.st0{enable-background:new    ;}
	.st1{fill:#FFFFFF;}
	.st2{fill:none;}
</style>
<g class="st0">
	<path class="st1" d="M29.9,37.8L27.5,39c-0.1-0.2-0.3-0.4-0.4-0.6c-0.2-0.2-0.4-0.3-0.6-0.4c-0.2-0.1-0.4-0.2-0.6-0.2
		c-0.2,0-0.4-0.1-0.6-0.1c-0.2,0-0.4,0-0.6,0c-0.2,0-0.3,0.1-0.5,0.2c-0.2,0.1-0.3,0.2-0.4,0.4c-0.1,0.2-0.2,0.4-0.2,0.6
		c0,0.2,0.1,0.4,0.2,0.6c0.1,0.2,0.3,0.4,0.6,0.6c0,0,0.1,0,0.1,0.1c0.1,0,0.1,0.1,0.2,0.1c0.2,0.1,0.5,0.3,0.8,0.4
		c0.2,0.1,0.5,0.3,0.8,0.4c0.1,0,0.2,0.1,0.2,0.1c0,0,0.1,0.1,0.2,0.1c0.2,0.1,0.3,0.2,0.4,0.2c0.1,0.1,0.2,0.1,0.4,0.2
		c0.4,0.2,0.7,0.5,1,0.7c0.3,0.3,0.4,0.6,0.6,0.8c0.1,0.3,0.2,0.6,0.3,0.9c0.1,0.3,0.1,0.6,0.1,0.9c0,0.4,0,0.7-0.1,1
		c-0.1,0.4-0.2,0.7-0.4,0.9c-0.2,0.3-0.5,0.6-0.8,0.8c-0.3,0.3-0.7,0.5-1.2,0.7c0,0-0.2,0.1-0.4,0.1c-0.1,0-0.3,0.1-0.5,0.1
		c-0.1,0-0.2,0-0.2,0c-0.1,0-0.2,0-0.2,0c-0.2,0-0.4,0-0.4,0c0,0-0.1,0-0.1,0c-0.1,0-0.2,0-0.3,0c-0.1,0-0.1,0-0.1,0
		c0,0-0.1,0-0.1,0c0,0-0.1,0-0.2,0c-0.3,0-0.6-0.1-0.9-0.2c-0.3-0.1-0.6-0.2-1-0.4c-0.3-0.2-0.7-0.4-0.9-0.7c-0.3-0.3-0.6-0.6-0.8-1
		c0,0,0-0.1-0.1-0.1s0-0.1-0.1-0.1c-0.1-0.1-0.1-0.2-0.1-0.2l2.4-1.2h0.1c0.1,0.2,0.2,0.4,0.4,0.6c0.2,0.2,0.4,0.3,0.6,0.4
		c0.2,0.1,0.4,0.2,0.6,0.2c0.2,0,0.4,0.1,0.6,0.1c0.2,0,0.4,0,0.6,0c0.2,0,0.4-0.1,0.5-0.2c0.1-0.1,0.3-0.2,0.4-0.4
		c0.1-0.2,0.2-0.4,0.2-0.6c0-0.5-0.4-1-1.1-1.4c-0.1,0-0.1-0.1-0.2-0.1c-0.1-0.1-0.2-0.1-0.4-0.2c-0.1,0-0.2-0.1-0.2-0.1
		c-0.1,0-0.2-0.1-0.2-0.1c-0.2-0.1-0.4-0.2-0.4-0.2c-0.1,0-0.1-0.1-0.2-0.1c-0.1,0-0.2-0.1-0.2-0.1c-0.1,0-0.1-0.1-0.2-0.1
		c-0.1,0-0.1-0.1-0.2-0.1c-0.1,0-0.1-0.1-0.2-0.1c-0.1,0-0.1-0.1-0.2-0.1c-0.4-0.2-0.7-0.4-1-0.7c-0.3-0.3-0.4-0.6-0.6-0.9
		c-0.1-0.3-0.2-0.6-0.3-0.9c-0.1-0.3-0.1-0.6-0.1-0.9c0,0,0-0.1,0-0.3c0-0.3,0.1-0.4,0.1-0.5c0,0,0,0,0-0.2c0-0.1,0-0.1,0.1-0.2
		c0-0.1,0.1-0.2,0.1-0.2c0-0.1,0.1-0.2,0.1-0.3c0.1-0.2,0.2-0.4,0.4-0.6c0.1-0.2,0.3-0.3,0.6-0.5c0.2-0.2,0.4-0.3,0.6-0.4
		c0.2-0.1,0.4-0.2,0.6-0.3c0.3-0.1,0.6-0.2,0.9-0.2c0.3,0,0.6-0.1,0.9-0.1c0,0,0.1,0,0.1,0c0,0,0.1,0,0.2,0c0,0,0.1,0,0.1,0
		c0,0,0.1,0,0.2,0c0.1,0,0.2,0,0.2,0c0.3,0,0.6,0.1,0.9,0.2c0.3,0.1,0.7,0.2,1,0.4c0.3,0.2,0.7,0.4,0.9,0.7c0.3,0.3,0.6,0.6,0.8,0.9
		l0.1,0.2c0,0,0,0.1,0.1,0.1C29.8,37.7,29.9,37.8,29.9,37.8z"/>
	<path class="st1" d="M42.3,37.8h-6.2h-0.8h-2.8V35h9.8V37.8z M35.3,40.5h0.8h2.6v2.8h-3.5v5.5h-2.8v-8.3H35.3z"/>
	<path class="st1" d="M54.8,48.9h-3.1l-2.4-5.3h-1.5v5.3H45v-8.1h2.8h0.7h1.4c0,0,0.1,0,0.2,0c0.2-0.1,0.2-0.1,0.2-0.1
		c0.4-0.1,0.6-0.3,0.7-0.6c0.1-0.3,0.2-0.5,0.2-0.8c0-0.2-0.1-0.5-0.2-0.8c-0.1-0.3-0.4-0.5-0.7-0.6c0,0-0.1,0-0.2-0.1
		c-0.1,0-0.2,0-0.2,0h-1.4h-0.7H45V35h5c0,0,0.1,0,0.3,0c0.1,0,0.2,0,0.4,0.1c0.2,0,0.3,0.1,0.4,0.1c0.1,0,0.2,0.1,0.3,0.1
		c0.3,0.1,0.5,0.3,0.8,0.4c0.3,0.2,0.5,0.4,0.8,0.7c0.3,0.3,0.5,0.7,0.7,1c0.2,0.3,0.3,0.7,0.4,1c0.1,0.3,0.1,0.6,0.1,0.9
		c0,0.6-0.1,1.3-0.4,1.9c-0.3,0.6-0.8,1.2-1.6,1.7L54.8,48.9z"/>
	<path class="st1" d="M57.4,37.8V35h9.8v2.8c-1.6,0-3.3,0-4.9,0C60.6,37.8,59,37.8,57.4,37.8z M57.4,43.3v-2.8c1,0,2.1,0,3.1,0
		s2.1,0,3.2,0v2.8c-1.1,0-2.1,0-3.2,0S58.4,43.3,57.4,43.3z M67.2,48.9h-9.8V46c1.6,0,3.3,0,4.9,0c1.6,0,3.3,0,4.9,0V48.9z"/>
	<path class="st1" d="M14.7,35v11c-1,0-2,0-3,0c-1,0-2,0-3,0V35H5.9c0,2.3,0,4.6,0,6.9c0,1.4,0,2.7,0,4.1l2.8,2.8c0.9,0-0.9,0,0,0
		c1,0,2,0,3,0c1.9,0,3.9,0,5.8,0v0c0-0.9,0-1.9,0-2.8c0-1.4,0-2.8,0-4.1c0-2.3,0-4.6,0-6.9H14.7z"/>
	<path class="st1" d="M69.8,37.8V35h9.8v2.8c-1.6,0-3.3,0-4.9,0C73.1,37.8,71.5,37.8,69.8,37.8z M69.8,43.3v-2.8c1,0,2.1,0,3.1,0
		s2.1,0,3.2,0v2.8c-1.1,0-2.1,0-3.2,0S70.9,43.3,69.8,43.3z M79.6,48.9h-9.8V46c1.6,0,3.3,0,4.9,0c1.6,0,3.3,0,4.9,0V48.9z"/>
</g>
<polygon class="st2" points="61.6,38.2 71.9,38.2 71.9,38.2 "/>
</svg>
