<?xml version="1.0" encoding="utf-8"?>
<!-- Generator: Adobe Illustrator 23.0.1, SVG Export Plug-In . SVG Version: 6.00 Build 0)  -->
<svg version="1.1" id="Layer_1" xmlns="http://www.w3.org/2000/svg" xmlns:xlink="http://www.w3.org/1999/xlink" x="0px" y="0px"
	 viewBox="0 0 85 85" style="enable-background:new 0 0 85 85;" xml:space="preserve">
<style type="text/css">
	.st0{fill:url(#SVGID_1_);}
	.st1{fill:url(#SVGID_2_);}
	.st2{fill:url(#SVGID_3_);}
	.st3{fill:url(#SVGID_4_);}
	.st4{fill:url(#SVGID_5_);}
	.st5{fill:url(#SVGID_6_);}
	.st6{fill:url(#SVGID_7_);}
	.st7{fill:url(#SVGID_8_);}
	.st8{fill:url(#SVGID_9_);}
	.st9{fill:url(#SVGID_10_);}
	.st10{fill:url(#SVGID_11_);}
	.st11{fill:url(#SVGID_12_);}
	.st12{fill:url(#SVGID_13_);}
	.st13{fill:url(#SVGID_14_);}
	.st14{fill:url(#SVGID_15_);}
	.st15{fill:url(#SVGID_16_);}
	.st16{fill:url(#SVGID_17_);}
	.st17{fill:url(#SVGID_18_);}
	.st18{fill:url(#SVGID_19_);}
	.st19{fill:url(#SVGID_20_);}
	.st20{fill:url(#SVGID_21_);}
	.st21{fill:url(#SVGID_22_);}
	.st22{fill:url(#SVGID_23_);}
	.st23{fill:url(#SVGID_24_);}
	.st24{fill:url(#SVGID_25_);}
	.st25{fill:url(#SVGID_26_);}
	.st26{fill:url(#SVGID_27_);}
	.st27{fill:url(#SVGID_28_);}
</style>
<g>
	<linearGradient id="SVGID_1_" gradientUnits="userSpaceOnUse" x1="-0.5716" y1="10.4065" x2="15.4306" y2="83.0829">
		<stop  offset="0" style="stop-color:#FC87A9"/>
		<stop  offset="0.2788" style="stop-color:#FD9D94"/>
		<stop  offset="0.8551" style="stop-color:#FFD45E"/>
		<stop  offset="1" style="stop-color:#FFE350"/>
	</linearGradient>
	<path class="st0" d="M12.6,69.7c-0.2-0.3-0.3-0.6-0.5-0.9C12.3,69.1,12.5,69.4,12.6,69.7z"/>
	<linearGradient id="SVGID_2_" gradientUnits="userSpaceOnUse" x1="1.943" y1="9.8528" x2="17.9452" y2="82.5292">
		<stop  offset="0" style="stop-color:#FC87A9"/>
		<stop  offset="0.2788" style="stop-color:#FD9D94"/>
		<stop  offset="0.8551" style="stop-color:#FFD45E"/>
		<stop  offset="1" style="stop-color:#FFE350"/>
	</linearGradient>
	<path class="st1" d="M16.5,74c-0.4-0.3-0.8-0.6-1.1-0.9C15.8,73.4,16.1,73.7,16.5,74z"/>
	<linearGradient id="SVGID_3_" gradientUnits="userSpaceOnUse" x1="19.6657" y1="5.9505" x2="35.6679" y2="78.627">
		<stop  offset="0" style="stop-color:#FC87A9"/>
		<stop  offset="0.2788" style="stop-color:#FD9D94"/>
		<stop  offset="0.8551" style="stop-color:#FFD45E"/>
		<stop  offset="1" style="stop-color:#FFE350"/>
	</linearGradient>
	<path class="st2" d="M20.1,9c0.1,0,0.2-0.1,0.3-0.1C20.4,8.9,20.3,8.9,20.1,9z"/>
	<linearGradient id="SVGID_4_" gradientUnits="userSpaceOnUse" x1="-1.0187" y1="10.5049" x2="14.9834" y2="83.1814">
		<stop  offset="0" style="stop-color:#FC87A9"/>
		<stop  offset="0.2788" style="stop-color:#FD9D94"/>
		<stop  offset="0.8551" style="stop-color:#FFD45E"/>
		<stop  offset="1" style="stop-color:#FFE350"/>
	</linearGradient>
	<path class="st3" d="M10.5,63.4c0-0.4-0.1-0.7-0.1-1.1C10.5,62.7,10.5,63,10.5,63.4z"/>
	<linearGradient id="SVGID_5_" gradientUnits="userSpaceOnUse" x1="-1.0756" y1="10.5174" x2="14.9266" y2="83.1939">
		<stop  offset="0" style="stop-color:#FC87A9"/>
		<stop  offset="0.2788" style="stop-color:#FD9D94"/>
		<stop  offset="0.8551" style="stop-color:#FFD45E"/>
		<stop  offset="1" style="stop-color:#FFE350"/>
	</linearGradient>
	<path class="st4" d="M11.5,67.4c-0.1-0.3-0.2-0.6-0.3-1C11.3,66.8,11.4,67.1,11.5,67.4z"/>
	<linearGradient id="SVGID_6_" gradientUnits="userSpaceOnUse" x1="18.2731" y1="6.2572" x2="34.2753" y2="78.9336">
		<stop  offset="0" style="stop-color:#FC87A9"/>
		<stop  offset="0.2788" style="stop-color:#FD9D94"/>
		<stop  offset="0.8551" style="stop-color:#FFD45E"/>
		<stop  offset="1" style="stop-color:#FFE350"/>
	</linearGradient>
	<path class="st5" d="M18.8,9.6c0.1-0.1,0.3-0.1,0.4-0.2C19.1,9.4,18.9,9.5,18.8,9.6z"/>
	<linearGradient id="SVGID_7_" gradientUnits="userSpaceOnUse" x1="10.3509" y1="8.0015" x2="26.3531" y2="80.6779">
		<stop  offset="0" style="stop-color:#FC87A9"/>
		<stop  offset="0.2788" style="stop-color:#FD9D94"/>
		<stop  offset="0.8551" style="stop-color:#FFD45E"/>
		<stop  offset="1" style="stop-color:#FFE350"/>
	</linearGradient>
	<path class="st6" d="M26.1,77.1c-0.3,0-0.7,0-1,0C25.4,77.1,25.7,77.1,26.1,77.1z"/>
	<linearGradient id="SVGID_8_" gradientUnits="userSpaceOnUse" x1="6.1852" y1="8.9187" x2="22.1874" y2="81.5952">
		<stop  offset="0" style="stop-color:#FC87A9"/>
		<stop  offset="0.2788" style="stop-color:#FD9D94"/>
		<stop  offset="0.8551" style="stop-color:#FFD45E"/>
		<stop  offset="1" style="stop-color:#FFE350"/>
	</linearGradient>
	<path class="st7" d="M22.2,76.7c-0.8-0.2-1.6-0.5-2.3-0.8C20.6,76.2,21.4,76.5,22.2,76.7z"/>
	<linearGradient id="SVGID_9_" gradientUnits="userSpaceOnUse" x1="17.3625" y1="6.4577" x2="33.3646" y2="79.1341">
		<stop  offset="0" style="stop-color:#FC87A9"/>
		<stop  offset="0.2788" style="stop-color:#FD9D94"/>
		<stop  offset="0.8551" style="stop-color:#FFD45E"/>
		<stop  offset="1" style="stop-color:#FFE350"/>
	</linearGradient>
	<path class="st8" d="M17.9,10.1c0.2-0.1,0.3-0.2,0.5-0.3C18.2,9.9,18,10,17.9,10.1z"/>
	<linearGradient id="SVGID_10_" gradientUnits="userSpaceOnUse" x1="-1.139" y1="10.5314" x2="14.8632" y2="83.2078">
		<stop  offset="0" style="stop-color:#FC87A9"/>
		<stop  offset="0.2788" style="stop-color:#FD9D94"/>
		<stop  offset="0.8551" style="stop-color:#FFD45E"/>
		<stop  offset="1" style="stop-color:#FFE350"/>
	</linearGradient>
	<path class="st9" d="M10.7,64.5c-0.1-0.3-0.1-0.7-0.1-1.1C10.6,63.8,10.6,64.1,10.7,64.5z"/>
	<linearGradient id="SVGID_11_" gradientUnits="userSpaceOnUse" x1="7.9643" y1="8.527" x2="23.9665" y2="81.2034">
		<stop  offset="0" style="stop-color:#FC87A9"/>
		<stop  offset="0.2788" style="stop-color:#FD9D94"/>
		<stop  offset="0.8551" style="stop-color:#FFD45E"/>
		<stop  offset="1" style="stop-color:#FFE350"/>
	</linearGradient>
	<path class="st10" d="M17.6,10.3c-4.2,2.7-7.1,7.3-7.1,12.9l0,38.5V23.2C10.5,17.6,13.4,12.9,17.6,10.3z"/>
	<linearGradient id="SVGID_12_" gradientUnits="userSpaceOnUse" x1="0.902" y1="10.082" x2="16.9042" y2="82.7584">
		<stop  offset="0" style="stop-color:#FC87A9"/>
		<stop  offset="0.2788" style="stop-color:#FD9D94"/>
		<stop  offset="0.8551" style="stop-color:#FFD45E"/>
		<stop  offset="1" style="stop-color:#FFE350"/>
	</linearGradient>
	<path class="st11" d="M13.7,71.3c0.5,0.6,1.1,1.2,1.7,1.8C14.8,72.5,14.2,71.9,13.7,71.3z"/>
	<linearGradient id="SVGID_13_" gradientUnits="userSpaceOnUse" x1="25.1252" y1="4.7485" x2="41.1273" y2="77.4249">
		<stop  offset="0" style="stop-color:#FC87A9"/>
		<stop  offset="0.2788" style="stop-color:#FD9D94"/>
		<stop  offset="0.8551" style="stop-color:#FFD45E"/>
		<stop  offset="1" style="stop-color:#FFE350"/>
	</linearGradient>
	<path class="st12" d="M25.6,7.9c0.2,0,0.3,0,0.5,0C25.9,7.9,25.7,7.9,25.6,7.9z"/>
	<linearGradient id="SVGID_14_" gradientUnits="userSpaceOnUse" x1="41.5067" y1="1.1415" x2="57.5089" y2="73.8179">
		<stop  offset="0" style="stop-color:#FC87A9"/>
		<stop  offset="0.2788" style="stop-color:#FD9D94"/>
		<stop  offset="0.8551" style="stop-color:#FFD45E"/>
		<stop  offset="1" style="stop-color:#FFE350"/>
	</linearGradient>
	<path class="st13" d="M66.9,29.2L33.5,9.9l0,65.1l33.4-19.3C77.1,49.9,77.1,35.1,66.9,29.2z"/>
	<linearGradient id="SVGID_15_" gradientUnits="userSpaceOnUse" x1="0.1006" y1="10.2585" x2="16.1027" y2="82.9349">
		<stop  offset="0" style="stop-color:#FC87A9"/>
		<stop  offset="0.2788" style="stop-color:#FD9D94"/>
		<stop  offset="0.8551" style="stop-color:#FFD45E"/>
		<stop  offset="1" style="stop-color:#FFE350"/>
	</linearGradient>
	<path class="st14" d="M13.7,71.3c-0.2-0.3-0.4-0.5-0.6-0.8C13.3,70.8,13.5,71,13.7,71.3z"/>
	<linearGradient id="SVGID_16_" gradientUnits="userSpaceOnUse" x1="3.0208" y1="9.6155" x2="19.023" y2="82.2919">
		<stop  offset="0" style="stop-color:#FC87A9"/>
		<stop  offset="0.2788" style="stop-color:#FD9D94"/>
		<stop  offset="0.8551" style="stop-color:#FFD45E"/>
		<stop  offset="1" style="stop-color:#FFE350"/>
	</linearGradient>
	<path class="st15" d="M17.7,74.8c-0.3-0.2-0.5-0.3-0.8-0.5C17.2,74.5,17.4,74.6,17.7,74.8z"/>
	<linearGradient id="SVGID_17_" gradientUnits="userSpaceOnUse" x1="21.5409" y1="5.5377" x2="37.543" y2="78.2141">
		<stop  offset="0" style="stop-color:#FC87A9"/>
		<stop  offset="0.2788" style="stop-color:#FD9D94"/>
		<stop  offset="0.8551" style="stop-color:#FFD45E"/>
		<stop  offset="1" style="stop-color:#FFE350"/>
	</linearGradient>
	<path class="st16" d="M21.6,8.5c0.4-0.1,0.8-0.2,1.2-0.3C22.3,8.3,22,8.4,21.6,8.5z"/>
	<linearGradient id="SVGID_18_" gradientUnits="userSpaceOnUse" x1="-0.264" y1="10.3387" x2="15.7381" y2="83.0152">
		<stop  offset="0" style="stop-color:#FC87A9"/>
		<stop  offset="0.2788" style="stop-color:#FD9D94"/>
		<stop  offset="0.8551" style="stop-color:#FFD45E"/>
		<stop  offset="1" style="stop-color:#FFE350"/>
	</linearGradient>
	<path class="st17" d="M13.2,70.5c-0.2-0.3-0.4-0.5-0.5-0.8C12.8,69.9,13,70.2,13.2,70.5z"/>
	<linearGradient id="SVGID_19_" gradientUnits="userSpaceOnUse" x1="28.689" y1="3.9638" x2="44.6911" y2="76.6402">
		<stop  offset="0" style="stop-color:#FC8574"/>
		<stop  offset="0.2528" style="stop-color:#FC8877;stop-opacity:0.8989"/>
		<stop  offset="0.4425" style="stop-color:#FC9181;stop-opacity:0.823"/>
		<stop  offset="0.6114" style="stop-color:#FDA191;stop-opacity:0.7554"/>
		<stop  offset="0.7684" style="stop-color:#FEB6A7;stop-opacity:0.6927"/>
		<stop  offset="0.9156" style="stop-color:#FED2C5;stop-opacity:0.6337"/>
		<stop  offset="1" style="stop-color:#FFE6D9;stop-opacity:0.6"/>
	</linearGradient>
	<path class="st18" d="M33.5,9.9L33.5,9.9c-2.4-1.4-4.9-2-7.4-2.1C28.5,7.9,31.1,8.6,33.5,9.9L33.5,9.9z"/>
	<linearGradient id="SVGID_20_" gradientUnits="userSpaceOnUse" x1="23.5076" y1="5.1046" x2="39.5098" y2="77.7811">
		<stop  offset="0" style="stop-color:#FC8574"/>
		<stop  offset="0.2528" style="stop-color:#FC8877;stop-opacity:0.8989"/>
		<stop  offset="0.4425" style="stop-color:#FC9181;stop-opacity:0.823"/>
		<stop  offset="0.6114" style="stop-color:#FDA191;stop-opacity:0.7554"/>
		<stop  offset="0.7684" style="stop-color:#FEB6A7;stop-opacity:0.6927"/>
		<stop  offset="0.9156" style="stop-color:#FED2C5;stop-opacity:0.6337"/>
		<stop  offset="1" style="stop-color:#FFE6D9;stop-opacity:0.6"/>
	</linearGradient>
	<path class="st19" d="M22.7,8.2c0.9-0.2,1.9-0.3,2.8-0.3C24.6,7.9,23.7,8,22.7,8.2z"/>
	<linearGradient id="SVGID_21_" gradientUnits="userSpaceOnUse" x1="20.397" y1="5.7895" x2="36.3991" y2="78.466">
		<stop  offset="0" style="stop-color:#FC8574"/>
		<stop  offset="0.2528" style="stop-color:#FC8877;stop-opacity:0.8989"/>
		<stop  offset="0.4425" style="stop-color:#FC9181;stop-opacity:0.823"/>
		<stop  offset="0.6114" style="stop-color:#FDA191;stop-opacity:0.7554"/>
		<stop  offset="0.7684" style="stop-color:#FEB6A7;stop-opacity:0.6927"/>
		<stop  offset="0.9156" style="stop-color:#FED2C5;stop-opacity:0.6337"/>
		<stop  offset="1" style="stop-color:#FFE6D9;stop-opacity:0.6"/>
	</linearGradient>
	<path class="st20" d="M20.5,8.8c0.4-0.1,0.7-0.3,1.1-0.4C21.2,8.6,20.8,8.7,20.5,8.8z"/>
	<linearGradient id="SVGID_22_" gradientUnits="userSpaceOnUse" x1="13.2525" y1="7.3626" x2="29.2546" y2="80.0391">
		<stop  offset="0" style="stop-color:#FC8574"/>
		<stop  offset="0.2528" style="stop-color:#FC8877;stop-opacity:0.8989"/>
		<stop  offset="0.4425" style="stop-color:#FC9181;stop-opacity:0.823"/>
		<stop  offset="0.6114" style="stop-color:#FDA191;stop-opacity:0.7554"/>
		<stop  offset="0.7684" style="stop-color:#FEB6A7;stop-opacity:0.6927"/>
		<stop  offset="0.9156" style="stop-color:#FED2C5;stop-opacity:0.6337"/>
		<stop  offset="1" style="stop-color:#FFE6D9;stop-opacity:0.6"/>
	</linearGradient>
	<path class="st21" d="M29.1,76.8c-0.3,0.1-0.7,0.1-1,0.2C28.4,76.9,28.7,76.9,29.1,76.8z"/>
	<linearGradient id="SVGID_23_" gradientUnits="userSpaceOnUse" x1="17.8338" y1="6.3539" x2="33.8359" y2="79.0303">
		<stop  offset="0" style="stop-color:#FC8574"/>
		<stop  offset="0.2528" style="stop-color:#FC8877;stop-opacity:0.8989"/>
		<stop  offset="0.4425" style="stop-color:#FC9181;stop-opacity:0.823"/>
		<stop  offset="0.6114" style="stop-color:#FDA191;stop-opacity:0.7554"/>
		<stop  offset="0.7684" style="stop-color:#FEB6A7;stop-opacity:0.6927"/>
		<stop  offset="0.9156" style="stop-color:#FED2C5;stop-opacity:0.6337"/>
		<stop  offset="1" style="stop-color:#FFE6D9;stop-opacity:0.6"/>
	</linearGradient>
	<path class="st22" d="M18.4,9.8c0.1-0.1,0.3-0.1,0.4-0.2C18.6,9.7,18.5,9.7,18.4,9.8z"/>
	<linearGradient id="SVGID_24_" gradientUnits="userSpaceOnUse" x1="16.9321" y1="6.5525" x2="32.9343" y2="79.2289">
		<stop  offset="0" style="stop-color:#FC8574"/>
		<stop  offset="0.2528" style="stop-color:#FC8877;stop-opacity:0.8989"/>
		<stop  offset="0.4425" style="stop-color:#FC9181;stop-opacity:0.823"/>
		<stop  offset="0.6114" style="stop-color:#FDA191;stop-opacity:0.7554"/>
		<stop  offset="0.7684" style="stop-color:#FEB6A7;stop-opacity:0.6927"/>
		<stop  offset="0.9156" style="stop-color:#FED2C5;stop-opacity:0.6337"/>
		<stop  offset="1" style="stop-color:#FFE6D9;stop-opacity:0.6"/>
	</linearGradient>
	<path class="st23" d="M17.6,10.3c0.1-0.1,0.2-0.1,0.3-0.2C17.8,10.1,17.7,10.2,17.6,10.3z"/>
	<linearGradient id="SVGID_25_" gradientUnits="userSpaceOnUse" x1="18.9932" y1="6.0986" x2="34.9953" y2="78.775">
		<stop  offset="0" style="stop-color:#FC8574"/>
		<stop  offset="0.2528" style="stop-color:#FC8877;stop-opacity:0.8989"/>
		<stop  offset="0.4425" style="stop-color:#FC9181;stop-opacity:0.823"/>
		<stop  offset="0.6114" style="stop-color:#FDA191;stop-opacity:0.7554"/>
		<stop  offset="0.7684" style="stop-color:#FEB6A7;stop-opacity:0.6927"/>
		<stop  offset="0.9156" style="stop-color:#FED2C5;stop-opacity:0.6337"/>
		<stop  offset="1" style="stop-color:#FFE6D9;stop-opacity:0.6"/>
	</linearGradient>
	<path class="st24" d="M19.2,9.4c0.3-0.1,0.6-0.3,0.9-0.4C19.8,9.1,19.5,9.2,19.2,9.4z"/>
	<linearGradient id="SVGID_26_" gradientUnits="userSpaceOnUse" x1="11.0595" y1="7.8455" x2="27.0616" y2="80.5219">
		<stop  offset="0" style="stop-color:#FC8574"/>
		<stop  offset="0.2528" style="stop-color:#FC8877;stop-opacity:0.8989"/>
		<stop  offset="0.4425" style="stop-color:#FC9181;stop-opacity:0.823"/>
		<stop  offset="0.6114" style="stop-color:#FDA191;stop-opacity:0.7554"/>
		<stop  offset="0.7684" style="stop-color:#FEB6A7;stop-opacity:0.6927"/>
		<stop  offset="0.9156" style="stop-color:#FED2C5;stop-opacity:0.6337"/>
		<stop  offset="1" style="stop-color:#FFE6D9;stop-opacity:0.6"/>
	</linearGradient>
	<path class="st25" d="M26.6,77.1c-0.2,0-0.3,0-0.5,0C26.2,77.1,26.4,77.1,26.6,77.1z"/>
	<linearGradient id="SVGID_27_" gradientUnits="userSpaceOnUse" x1="15.4058" y1="6.8885" x2="31.408" y2="79.5649">
		<stop  offset="0" style="stop-color:#FC87A9"/>
		<stop  offset="0.2788" style="stop-color:#FD9D94"/>
		<stop  offset="0.8551" style="stop-color:#FFD45E"/>
		<stop  offset="1" style="stop-color:#FFE350"/>
	</linearGradient>
	<path class="st26" d="M33.5,9.9c-2.4-1.4-4.9-2-7.4-2.1c-0.2,0-0.3,0-0.5,0c-1,0-1.9,0.1-2.8,0.3c-0.4,0.1-0.8,0.2-1.2,0.3
		c-0.4,0.1-0.7,0.2-1.1,0.4c-0.1,0-0.2,0.1-0.3,0.1c-0.3,0.1-0.6,0.3-0.9,0.4c-0.1,0.1-0.3,0.1-0.4,0.2c-0.1,0.1-0.3,0.1-0.4,0.2
		c-0.2,0.1-0.3,0.2-0.5,0.3c-0.1,0.1-0.2,0.1-0.3,0.2c-4.2,2.7-7.1,7.3-7.1,12.9v38.5c0,0.2,0,0.4,0,0.6c0,0.4,0,0.7,0.1,1.1
		c0,0.4,0.1,0.7,0.1,1.1c0.1,0.7,0.3,1.4,0.5,2c0.1,0.3,0.2,0.6,0.3,1c0.2,0.5,0.4,0.9,0.6,1.4c0.2,0.3,0.3,0.6,0.5,0.9
		c0.2,0.3,0.3,0.6,0.5,0.8s0.4,0.5,0.6,0.8c0.5,0.6,1.1,1.2,1.7,1.8c0.4,0.3,0.7,0.6,1.1,0.9c0.1,0.1,0.3,0.2,0.4,0.3
		c0.3,0.2,0.5,0.4,0.8,0.5c0.7,0.4,1.4,0.8,2.2,1.1c0.7,0.3,1.5,0.6,2.3,0.8c0.9,0.2,1.9,0.4,2.9,0.4c0.3,0,0.7,0,1,0
		c0.2,0,0.3,0,0.5,0c0.5,0,1-0.1,1.5-0.1c0.3,0,0.7-0.1,1-0.2c1.5-0.3,3-0.9,4.4-1.7L33.5,9.9L33.5,9.9z"/>
	<linearGradient id="SVGID_28_" gradientUnits="userSpaceOnUse" x1="15.4058" y1="6.8885" x2="31.408" y2="79.5649">
		<stop  offset="0" style="stop-color:#FC8574"/>
		<stop  offset="0.2528" style="stop-color:#FC8877;stop-opacity:0.8989"/>
		<stop  offset="0.4425" style="stop-color:#FC9181;stop-opacity:0.823"/>
		<stop  offset="0.6114" style="stop-color:#FDA191;stop-opacity:0.7554"/>
		<stop  offset="0.7684" style="stop-color:#FEB6A7;stop-opacity:0.6927"/>
		<stop  offset="0.9156" style="stop-color:#FED2C5;stop-opacity:0.6337"/>
		<stop  offset="1" style="stop-color:#FFE6D9;stop-opacity:0.6"/>
	</linearGradient>
	<path class="st27" d="M33.5,9.9c-2.4-1.4-4.9-2-7.4-2.1c-0.2,0-0.3,0-0.5,0c-1,0-1.9,0.1-2.8,0.3c-0.4,0.1-0.8,0.2-1.2,0.3
		c-0.4,0.1-0.7,0.2-1.1,0.4c-0.1,0-0.2,0.1-0.3,0.1c-0.3,0.1-0.6,0.3-0.9,0.4c-0.1,0.1-0.3,0.1-0.4,0.2c-0.1,0.1-0.3,0.1-0.4,0.2
		c-0.2,0.1-0.3,0.2-0.5,0.3c-0.1,0.1-0.2,0.1-0.3,0.2c-4.2,2.7-7.1,7.3-7.1,12.9v38.5c0,0.2,0,0.4,0,0.6c0,0.4,0,0.7,0.1,1.1
		c0,0.4,0.1,0.7,0.1,1.1c0.1,0.7,0.3,1.4,0.5,2c0.1,0.3,0.2,0.6,0.3,1c0.2,0.5,0.4,0.9,0.6,1.4c0.2,0.3,0.3,0.6,0.5,0.9
		c0.2,0.3,0.3,0.6,0.5,0.8s0.4,0.5,0.6,0.8c0.5,0.6,1.1,1.2,1.7,1.8c0.4,0.3,0.7,0.6,1.1,0.9c0.1,0.1,0.3,0.2,0.4,0.3
		c0.3,0.2,0.5,0.4,0.8,0.5c0.7,0.4,1.4,0.8,2.2,1.1c0.7,0.3,1.5,0.6,2.3,0.8c0.9,0.2,1.9,0.4,2.9,0.4c0.3,0,0.7,0,1,0
		c0.2,0,0.3,0,0.5,0c0.5,0,1-0.1,1.5-0.1c0.3,0,0.7-0.1,1-0.2c1.5-0.3,3-0.9,4.4-1.7L33.5,9.9L33.5,9.9z"/>
</g>
</svg>
