<?xml version="1.0" encoding="utf-8"?>
<!-- Generator: Adobe Illustrator 23.0.1, SVG Export Plug-In . SVG Version: 6.00 Build 0)  -->
<svg version="1.1" id="Layer_1" xmlns="http://www.w3.org/2000/svg" xmlns:xlink="http://www.w3.org/1999/xlink" x="0px" y="0px"
	 viewBox="0 0 85 85" style="enable-background:new 0 0 85 85;" xml:space="preserve">
<style type="text/css">
	.st0{opacity:0;fill:#FFFFFF;}
	.st1{opacity:1.818182e-02;fill:#FEFEFE;}
	.st2{opacity:3.636364e-02;fill:#FDFDFD;}
	.st3{opacity:5.454545e-02;fill:#FCFCFC;}
	.st4{opacity:7.272727e-02;fill:#FBFBFB;}
	.st5{opacity:9.090909e-02;fill:#FAFAFA;}
	.st6{opacity:0.1091;fill:#F9F9F9;}
	.st7{opacity:0.1273;fill:#F8F8F8;}
	.st8{opacity:0.1455;fill:#F7F7F7;}
	.st9{opacity:0.1636;fill:#F6F6F6;}
	.st10{opacity:0.1818;fill:#F5F5F5;}
	.st11{opacity:0.2;fill:#F4F4F4;}
	.st12{opacity:0.2182;fill:#F3F3F3;}
	.st13{opacity:0.2364;fill:#F2F2F3;}
	.st14{opacity:0.2545;fill:#F1F1F2;}
	.st15{opacity:0.2727;fill:#F0F0F1;}
	.st16{opacity:0.2909;fill:#EFEFF0;}
	.st17{opacity:0.3091;fill:#EEEFEF;}
	.st18{opacity:0.3273;fill:#EDEEEE;}
	.st19{opacity:0.3455;fill:#ECEDED;}
	.st20{opacity:0.3636;fill:#EBECEC;}
	.st21{opacity:0.3818;fill:#EAEBEB;}
	.st22{opacity:0.4;fill:#E9EAEA;}
	.st23{opacity:0.4182;fill:#E8E9E9;}
	.st24{opacity:0.4364;fill:#E7E8E8;}
	.st25{opacity:0.4545;fill:#E6E7E7;}
	.st26{opacity:0.4727;fill:#E6E6E6;}
	.st27{opacity:0.4909;fill:#E5E5E5;}
	.st28{opacity:0.5091;fill:#E4E4E4;}
	.st29{opacity:0.5273;fill:#E3E3E3;}
	.st30{opacity:0.5455;fill:#E2E2E2;}
	.st31{opacity:0.5636;fill:#E1E1E1;}
	.st32{opacity:0.5818;fill:#E0E0E0;}
	.st33{opacity:0.6;fill:#DFDFDF;}
	.st34{opacity:0.6182;fill:#DEDEDE;}
	.st35{opacity:0.6364;fill:#DDDDDD;}
	.st36{opacity:0.6545;fill:#DCDCDC;}
	.st37{opacity:0.6727;fill:#DBDBDB;}
	.st38{opacity:0.6909;fill:#DADADB;}
	.st39{opacity:0.7091;fill:#D9D9DA;}
	.st40{opacity:0.7273;fill:#D8D8D9;}
	.st41{opacity:0.7455;fill:#D7D7D8;}
	.st42{opacity:0.7636;fill:#D6D6D7;}
	.st43{opacity:0.7818;fill:#D5D5D6;}
	.st44{opacity:0.8;fill:#D4D4D5;}
	.st45{opacity:0.8182;fill:#D3D3D4;}
	.st46{opacity:0.8364;fill:#D2D2D3;}
	.st47{opacity:0.8545;fill:#D1D1D2;}
	.st48{opacity:0.8727;fill:#D0D0D1;}
	.st49{opacity:0.8909;fill:#CFD0D0;}
	.st50{opacity:0.9091;fill:#CECFCF;}
	.st51{opacity:0.9273;fill:#CDCECE;}
	.st52{opacity:0.9455;fill:#CCCDCD;}
	.st53{opacity:0.9636;fill:#CBCCCC;}
	.st54{opacity:0.9818;fill:#CACBCB;}
	.st55{fill:#B3B3B3;}
	.st56{fill:#FAFAFA;}
	.st57{fill:#E6E6E6;}
	.st58{fill:#EAEAEA;}
	.st59{fill:#323232;}
</style>
<g>
	<g>
		<path class="st0" d="M275.9,234.4c-1.6,2.6-3,2.3-6.6,0.1l-14.8-6.1c-3.6-2.2-4.5-6.9-2.9-9.5l8.4-21.9c1.6-2.6-2.3-1.3,1.3,1
			l24.3,10c3.6,2.2,0.6,13.1-1,15.6L275.9,234.4z"/>
		<path class="st1" d="M275.8,234c-1.6,2.5-3,2.3-6.5,0.1l-14.7-6.1c-3.6-2.2-4.5-6.8-2.9-9.4L260,197c1.6-2.5-2.3-1.3,1.3,0.9
			l24.1,9.9c3.6,2.2,0.7,12.9-0.9,15.4L275.8,234z"/>
		<path class="st2" d="M275.7,233.7c-1.6,2.5-3,2.3-6.5,0.1l-14.5-6.1c-3.5-2.2-4.5-6.8-3-9.3l8.3-21.3c1.6-2.5-2.2-1.3,1.3,0.9
			l23.8,9.8c3.5,2.2,0.8,12.7-0.8,15.2L275.7,233.7z"/>
		<path class="st3" d="M275.7,233.4c-1.6,2.5-3,2.2-6.4,0.1l-14.4-6c-3.5-2.2-4.5-6.7-3-9.2l8.2-20.9c1.6-2.5-2.1-1.4,1.4,0.8
			l23.5,9.7c3.5,2.2,0.9,12.5-0.6,15L275.7,233.4z"/>
		<path class="st4" d="M275.6,233c-1.5,2.5-3,2.2-6.3,0.1l-14.2-6c-3.5-2.2-4.5-6.6-3-9.1l8.2-20.6c1.5-2.5-2.1-1.4,1.4,0.8
			l23.2,9.6c3.5,2.2,1,12.3-0.5,14.8L275.6,233z"/>
		<path class="st5" d="M275.5,232.7c-1.5,2.5-2.9,2.2-6.3,0.1l-14.1-6c-3.5-2.2-4.5-6.5-3-9l8.2-20.3c1.5-2.5-2-1.4,1.5,0.7l23,9.4
			c3.5,2.2,1.2,12.1-0.4,14.6L275.5,232.7z"/>
		<path class="st6" d="M275.5,232.4c-1.5,2.4-2.9,2.1-6.2,0.1l-14-5.9c-3.4-2.1-4.6-6.5-3-8.9l8.1-19.9c1.5-2.4-1.9-1.4,1.5,0.7
			l22.7,9.3c3.4,2.1,1.3,11.9-0.2,14.4L275.5,232.4z"/>
		<path class="st7" d="M275.4,232.1c-1.5,2.4-2.9,2.1-6.1,0.1l-13.8-5.9c-3.4-2.1-4.6-6.4-3.1-8.8l8.1-19.6c1.5-2.4-1.9-1.5,1.5,0.7
			l22.4,9.2c3.4,2.1,1.4,11.7-0.1,14.2L275.4,232.1z"/>
		<path class="st8" d="M275.3,231.7c-1.5,2.4-2.9,2.1-6.1,0.1l-13.7-5.9c-3.4-2.1-4.6-6.3-3.1-8.7l8-19.2c1.5-2.4-1.8-1.5,1.6,0.6
			l22.1,9.1c3.4,2.1,1.5,11.6,0,14L275.3,231.7z"/>
		<path class="st9" d="M275.3,231.4c-1.5,2.4-2.9,2.1-6,0.1l-13.5-5.8c-3.4-2.1-4.6-6.2-3.1-8.6l8-18.9c1.5-2.4-1.7-1.5,1.6,0.6
			l21.9,8.9c3.4,2.1,1.6,11.4,0.2,13.7L275.3,231.4z"/>
		<path class="st10" d="M275.2,231.1c-1.5,2.4-2.9,2-5.9,0.1l-13.4-5.8c-3.3-2.1-4.6-6.2-3.1-8.5l8-18.6c1.5-2.4-1.7-1.6,1.7,0.5
			l21.6,8.8c3.3,2.1,1.8,11.2,0.3,13.5L275.2,231.1z"/>
		<path class="st11" d="M275.1,230.7c-1.5,2.3-2.9,2-5.9,0.1l-13.3-5.8c-3.3-2.1-4.6-6.1-3.1-8.4l7.9-18.2c1.5-2.3-1.6-1.6,1.7,0.5
			l21.3,8.7c3.3,2.1,1.9,11,0.4,13.3L275.1,230.7z"/>
		<path class="st12" d="M275.1,230.4c-1.4,2.3-2.9,2-5.8,0.1l-13.1-5.7c-3.3-2-4.6-6-3.1-8.3l7.9-17.9c1.4-2.3-1.5-1.6,1.7,0.4
			l21,8.6c3.3,2,2,10.8,0.5,13.1L275.1,230.4z"/>
		<path class="st13" d="M275,230.1c-1.4,2.3-2.8,2-5.7,0.1l-13-5.7c-3.2-2-4.6-5.9-3.2-8.2l7.8-17.6c1.4-2.3-1.5-1.6,1.8,0.4
			l20.8,8.5c3.2,2,2.1,10.6,0.7,12.9L275,230.1z"/>
		<path class="st14" d="M274.9,229.7c-1.4,2.3-2.8,1.9-5.7,0.1l-12.8-5.7c-3.2-2-4.6-5.8-3.2-8.1l7.8-17.2c1.4-2.3-1.4-1.7,1.8,0.3
			l20.5,8.3c3.2,2,2.2,10.4,0.8,12.7L274.9,229.7z"/>
		<path class="st15" d="M274.9,229.4c-1.4,2.3-2.8,1.9-5.6,0.1l-12.7-5.6c-3.2-2-4.6-5.8-3.2-8l7.7-16.9c1.4-2.3-1.3-1.7,1.9,0.3
			l20.2,8.2c3.2,2,2.4,10.2,0.9,12.5L274.9,229.4z"/>
		<path class="st16" d="M274.8,229.1c-1.4,2.2-2.8,1.9-5.5,0.1l-12.5-5.6c-3.2-2-4.6-5.7-3.2-7.9l7.7-16.5c1.4-2.2-1.2-1.7,1.9,0.2
			l19.9,8.1c3.2,2,2.5,10,1.1,12.3L274.8,229.1z"/>
		<path class="st17" d="M274.7,228.7c-1.4,2.2-2.8,1.9-5.5,0.1l-12.4-5.6c-3.1-1.9-4.6-5.6-3.2-7.8l7.7-16.2
			c1.4-2.2-1.2-1.8,1.9,0.2l19.6,8c3.1,1.9,2.6,9.9,1.2,12.1L274.7,228.7z"/>
		<path class="st18" d="M274.7,228.4c-1.4,2.2-2.8,1.8-5.4,0.1L257,223c-3.1-1.9-4.6-5.5-3.2-7.7l7.6-15.9c1.4-2.2-1.1-1.8,2,0.1
			l19.4,7.9c3.1,1.9,2.7,9.7,1.3,11.9L274.7,228.4z"/>
		<path class="st19" d="M274.6,228.1c-1.4,2.2-2.8,1.8-5.3,0.1l-12.1-5.5c-3.1-1.9-4.6-5.5-3.3-7.6l7.6-15.5c1.4-2.2-1-1.8,2,0.1
			l19.1,7.7c3.1,1.9,2.8,9.5,1.5,11.7L274.6,228.1z"/>
		<path class="st20" d="M274.6,227.7c-1.3,2.2-2.8,1.8-5.3,0.1l-12-5.5c-3-1.9-4.6-5.4-3.3-7.5l7.5-15.2c1.3-2.2-1-1.8,2.1,0.1
			l18.8,7.6c3,1.9,2.9,9.3,1.6,11.5L274.6,227.7z"/>
		<path class="st21" d="M274.5,227.4c-1.3,2.1-2.8,1.8-5.2,0.1l-11.8-5.5c-3-1.9-4.6-5.3-3.3-7.4l7.5-14.9c1.3-2.1-0.9-1.9,2.1,0
			l18.5,7.5c3,1.9,3.1,9.1,1.7,11.2L274.5,227.4z"/>
		<path class="st22" d="M274.4,227.1c-1.3,2.1-2.7,1.7-5.1,0.1l-11.7-5.4c-3-1.9-4.6-5.2-3.3-7.4l7.5-14.5c1.3-2.1-0.8-1.9,2.1,0
			l18.3,7.4c3,1.9,3.2,8.9,1.9,11L274.4,227.1z"/>
		<path class="st23" d="M274.4,226.8c-1.3,2.1-2.7,1.7-5.1,0.1l-11.6-5.4c-3-1.8-4.6-5.2-3.3-7.3l7.4-14.2c1.3-2.1-0.8-1.9,2.2-0.1
			l18,7.3c3,1.8,3.3,8.7,2,10.8L274.4,226.8z"/>
		<path class="st24" d="M274.3,226.4c-1.3,2.1-2.7,1.7-5,0.2l-11.4-5.4c-2.9-1.8-4.6-5.1-3.3-7.2l7.4-13.8c1.3-2.1-0.7-2,2.2-0.1
			l17.7,7.1c2.9,1.8,3.4,8.5,2.1,10.6L274.3,226.4z"/>
		<path class="st25" d="M274.2,226.1c-1.3,2.1-2.7,1.6-4.9,0.2l-11.3-5.3c-2.9-1.8-4.6-5-3.4-7.1l7.3-13.5c1.3-2.1-0.6-2,2.3-0.2
			l17.4,7c2.9,1.8,3.5,8.3,2.3,10.4L274.2,226.1z"/>
		<path class="st26" d="M274.2,225.8c-1.3,2-2.7,1.6-4.9,0.2l-11.1-5.3c-2.9-1.8-4.7-4.9-3.4-7l7.3-13.2c1.3-2-0.6-2,2.3-0.2
			l17.2,6.9c2.9,1.8,3.7,8.2,2.4,10.2L274.2,225.8z"/>
		<path class="st27" d="M274.1,225.4c-1.3,2-2.7,1.6-4.8,0.2l-11-5.3c-2.8-1.8-4.7-4.8-3.4-6.9l7.2-12.8c1.3-2-0.5-2,2.3-0.3
			l16.9,6.8c2.8,1.8,3.8,8,2.5,10L274.1,225.4z"/>
		<path class="st28" d="M274,225.1c-1.2,2-2.7,1.6-4.7,0.2l-10.8-5.2c-2.8-1.8-4.7-4.8-3.4-6.8l7.2-12.5c1.2-2-0.4-2.1,2.4-0.3
			l16.6,6.7c2.8,1.8,3.9,7.8,2.7,9.8L274,225.1z"/>
		<path class="st29" d="M274,224.8c-1.2,2-2.7,1.5-4.7,0.2l-10.7-5.2c-2.8-1.7-4.7-4.7-3.4-6.7l7.2-12.2c1.2-2-0.4-2.1,2.4-0.4
			l16.3,6.5c2.8,1.7,4,7.6,2.8,9.6L274,224.8z"/>
		<path class="st30" d="M273.9,224.4c-1.2,2-2.6,1.5-4.6,0.2l-10.6-5.2c-2.8-1.7-4.7-4.6-3.4-6.6l7.1-11.8c1.2-2-0.3-2.1,2.5-0.4
			l16,6.4c2.8,1.7,4.1,7.4,2.9,9.4L273.9,224.4z"/>
		<path class="st31" d="M273.8,224.1c-1.2,1.9-2.6,1.5-4.5,0.2l-10.4-5.1c-2.7-1.7-4.7-4.5-3.5-6.5l7.1-11.5
			c1.2-1.9-0.2-2.1,2.5-0.4l15.8,6.3c2.7,1.7,4.3,7.2,3.1,9.2L273.8,224.1z"/>
		<path class="st32" d="M273.8,223.8c-1.2,1.9-2.6,1.5-4.5,0.2l-10.3-5.1c-2.7-1.7-4.7-4.5-3.5-6.4l7-11.2c1.2-1.9-0.2-2.2,2.5-0.5
			l15.5,6.2c2.7,1.7,4.4,7,3.2,8.9L273.8,223.8z"/>
		<path class="st33" d="M273.7,223.4c-1.2,1.9-2.6,1.4-4.4,0.2l-10.1-5.1c-2.7-1.7-4.7-4.4-3.5-6.3l7-10.8c1.2-1.9-0.1-2.2,2.6-0.5
			l15.2,6c2.7,1.7,4.5,6.8,3.3,8.7L273.7,223.4z"/>
		<path class="st34" d="M273.6,223.1c-1.2,1.9-2.6,1.4-4.3,0.2l-10-5c-2.7-1.7-4.7-4.3-3.5-6.2l7-10.5c1.2-1.9,0-2.2,2.6-0.6
			l14.9,5.9c2.7,1.7,4.6,6.6,3.4,8.5L273.6,223.1z"/>
		<path class="st35" d="M273.6,222.8c-1.2,1.9-2.6,1.4-4.3,0.2l-9.9-5c-2.6-1.6-4.7-4.2-3.5-6.1l6.9-10.1c1.2-1.9,0-2.3,2.7-0.6
			l14.7,5.8c2.6,1.6,4.7,6.5,3.6,8.3L273.6,222.8z"/>
		<path class="st36" d="M273.5,222.4c-1.1,1.8-2.6,1.4-4.2,0.2l-9.7-5c-2.6-1.6-4.7-4.2-3.6-6l6.9-9.8c1.1-1.8,0.1-2.3,2.7-0.7
			l14.4,5.7c2.6,1.6,4.9,6.3,3.7,8.1L273.5,222.4z"/>
		<path class="st37" d="M273.4,222.1c-1.1,1.8-2.6,1.3-4.1,0.2l-9.6-5c-2.6-1.6-4.7-4.1-3.6-5.9l6.8-9.5c1.1-1.8,0.2-2.3,2.7-0.7
			l14.1,5.6c2.6,1.6,5,6.1,3.8,7.9L273.4,222.1z"/>
		<path class="st38" d="M273.4,221.8c-1.1,1.8-2.5,1.3-4.1,0.2l-9.4-4.9c-2.5-1.6-4.7-4-3.6-5.8l6.8-9.1c1.1-1.8,0.2-2.3,2.8-0.8
			l13.8,5.4c2.5,1.6,5.1,5.9,4,7.7L273.4,221.8z"/>
		<path class="st39" d="M273.3,221.5c-1.1,1.8-2.5,1.3-4,0.2l-9.3-4.9c-2.5-1.6-4.7-3.9-3.6-5.7l6.7-8.8c1.1-1.8,0.3-2.4,2.8-0.8
			l13.6,5.3c2.5,1.6,5.2,5.7,4.1,7.5L273.3,221.5z"/>
		<path class="st40" d="M273.2,221.1c-1.1,1.8-2.5,1.2-3.9,0.2l-9.1-4.9c-2.5-1.5-4.7-3.9-3.6-5.6l6.7-8.5c1.1-1.8,0.4-2.4,2.9-0.9
			l13.3,5.2c2.5,1.5,5.3,5.5,4.2,7.3L273.2,221.1z"/>
		<path class="st41" d="M273.2,220.8c-1.1,1.7-2.5,1.2-3.9,0.2l-9-4.8c-2.5-1.5-4.7-3.8-3.6-5.5l6.7-8.1c1.1-1.7,0.4-2.4,2.9-0.9
			l13,5.1c2.5,1.5,5.5,5.3,4.4,7.1L273.2,220.8z"/>
		<path class="st42" d="M273.1,220.5c-1.1,1.7-2.5,1.2-3.8,0.2l-8.9-4.8c-2.4-1.5-4.7-3.7-3.7-5.4l6.6-7.8c1.1-1.7,0.5-2.5,2.9-0.9
			l12.7,5c2.4,1.5,5.6,5.1,4.5,6.9L273.1,220.5z"/>
		<path class="st43" d="M273.1,220.1c-1.1,1.7-2.5,1.2-3.7,0.2l-8.7-4.8c-2.4-1.5-4.7-3.6-3.7-5.3l6.6-7.4c1.1-1.7,0.6-2.5,3-1
			l12.4,4.8c2.4,1.5,5.7,4.9,4.6,6.6L273.1,220.1z"/>
		<path class="st44" d="M273,219.8c-1,1.7-2.5,1.1-3.7,0.2l-8.6-4.7c-2.4-1.5-4.7-3.5-3.7-5.2l6.5-7.1c1-1.7,0.7-2.5,3-1l12.2,4.7
			c2.4,1.5,5.8,4.8,4.8,6.4L273,219.8z"/>
		<path class="st45" d="M272.9,219.5c-1,1.7-2.5,1.1-3.6,0.2l-8.4-4.7c-2.3-1.5-4.7-3.5-3.7-5.1l6.5-6.8c1-1.7,0.7-2.5,3.1-1.1
			l11.9,4.6c2.3,1.5,5.9,4.6,4.9,6.2L272.9,219.5z"/>
		<path class="st46" d="M272.9,219.1c-1,1.6-2.5,1.1-3.5,0.2l-8.3-4.7c-2.3-1.4-4.8-3.4-3.7-5l6.5-6.4c1-1.6,0.8-2.6,3.1-1.1
			l11.6,4.5c2.3,1.4,6,4.4,5,6L272.9,219.1z"/>
		<path class="st47" d="M272.8,218.8c-1,1.6-2.4,1.1-3.5,0.2l-8.2-4.6c-2.3-1.4-4.8-3.3-3.7-4.9l6.4-6.1c1-1.6,0.9-2.6,3.1-1.2
			l11.3,4.4c2.3,1.4,6.2,4.2,5.2,5.8L272.8,218.8z"/>
		<path class="st48" d="M272.7,218.5c-1,1.6-2.4,1-3.4,0.2l-8-4.6c-2.3-1.4-4.8-3.2-3.8-4.8l6.4-5.8c1-1.6,0.9-2.6,3.2-1.2l11.1,4.2
			c2.3,1.4,6.3,4,5.3,5.6L272.7,218.5z"/>
		<path class="st49" d="M272.7,218.1c-1,1.6-2.4,1-3.3,0.2l-7.9-4.6c-2.2-1.4-4.8-3.2-3.8-4.7l6.3-5.4c1-1.6,1-2.7,3.2-1.3l10.8,4.1
			c2.2,1.4,6.4,3.8,5.4,5.4L272.7,218.1z"/>
		<path class="st50" d="M272.6,217.8c-1,1.6-2.4,1-3.3,0.2l-7.7-4.5c-2.2-1.4-4.8-3.1-3.8-4.6l6.3-5.1c1-1.6,1.1-2.7,3.3-1.3l10.5,4
			c2.2,1.4,6.5,3.6,5.6,5.2L272.6,217.8z"/>
		<path class="st51" d="M272.5,217.5c-1,1.5-2.4,1-3.2,0.2l-7.6-4.5c-2.2-1.4-4.8-3-3.8-4.5l6.3-4.7c1-1.5,1.1-2.7,3.3-1.4l10.2,3.9
			c2.2,1.4,6.6,3.4,5.7,5L272.5,217.5z"/>
		<path class="st52" d="M272.5,217.2c-0.9,1.5-2.4,0.9-3.1,0.2l-7.4-4.5c-2.1-1.3-4.8-2.9-3.8-4.5l6.2-4.4c0.9-1.5,1.2-2.7,3.3-1.4
			l10,3.8c2.1,1.3,6.8,3.2,5.8,4.8L272.5,217.2z"/>
		<path class="st53" d="M272.4,216.8c-0.9,1.5-2.4,0.9-3.1,0.3l-7.3-4.4c-2.1-1.3-4.8-2.9-3.8-4.4l6.2-4.1c0.9-1.5,1.3-2.8,3.4-1.5
			l9.7,3.6c2.1,1.3,6.9,3.1,5.9,4.6L272.4,216.8z"/>
		<path class="st54" d="M272.3,216.5c-0.9,1.5-2.4,0.9-3,0.3l-7.2-4.4c-2.1-1.3-4.8-2.8-3.9-4.3l6.1-3.7c0.9-1.5,1.3-2.8,3.4-1.5
			l9.4,3.5c2.1,1.3,7,2.9,6.1,4.3L272.3,216.5z"/>
		<path class="st55" d="M272.3,216.2c-0.9,1.5-2.3,0.8-2.9,0.3l-7-4.4c-2.1-1.3-4.8-2.7-3.9-4.2l6.1-3.4c0.9-1.5,1.4-2.8,3.5-1.5
			l9.1,3.4c2.1,1.3,7.1,2.7,6.2,4.1L272.3,216.2z"/>
	</g>
	<g>
		<polygon class="st56" points="282.3,194 269,186.2 255.7,193.9 269,201.7 		"/>
		<polygon class="st55" points="269,201.7 268.9,217.1 282.3,209.4 282.3,194 		"/>
		<polygon class="st57" points="255.7,193.9 255.6,209.3 268.9,217.1 269,201.7 		"/>
	</g>
</g>
<g>
	<g>
		<polygon class="st58" points="71.5,25.9 42.6,9.1 13.6,25.7 42.5,42.5 		"/>
		<polygon class="st59" points="42.5,42.5 42.4,75.9 71.4,59.3 71.5,25.9 		"/>
		<polygon class="st58" points="13.6,25.7 13.5,59.1 42.4,75.9 42.5,42.5 		"/>
	</g>
</g>
</svg>
