<?xml version="1.0" encoding="utf-8"?>
<!-- Generator: Adobe Illustrator 23.0.1, SVG Export Plug-In . SVG Version: 6.00 Build 0)  -->
<svg version="1.1" id="Layer_1" xmlns="http://www.w3.org/2000/svg" xmlns:xlink="http://www.w3.org/1999/xlink" x="0px" y="0px"
	 viewBox="0 0 85 85" style="enable-background:new 0 0 85 85;" xml:space="preserve">
<style type="text/css">
	.st0{fill:url(#SVGID_1_);}
	.st1{fill:url(#SVGID_2_);}
	.st2{fill:url(#SVGID_3_);}
	.st3{fill:url(#SVGID_4_);}
	.st4{fill:url(#SVGID_5_);}
	.st5{fill:url(#SVGID_6_);}
	.st6{fill:url(#SVGID_7_);}
	.st7{fill:url(#SVGID_8_);}
	.st8{fill:url(#SVGID_9_);}
	.st9{fill:url(#SVGID_10_);}
	.st10{fill:url(#SVGID_11_);}
	.st11{fill:url(#SVGID_12_);}
	.st12{fill:url(#SVGID_13_);}
	.st13{fill:url(#SVGID_14_);}
	.st14{fill:url(#SVGID_15_);}
	.st15{fill:url(#SVGID_16_);}
	.st16{fill:url(#SVGID_17_);}
	.st17{fill:url(#SVGID_18_);}
	.st18{fill:url(#SVGID_19_);}
	.st19{fill:url(#SVGID_20_);}
	.st20{fill:url(#SVGID_21_);}
	.st21{fill:url(#SVGID_22_);}
	.st22{fill:url(#SVGID_23_);}
	.st23{fill:url(#SVGID_24_);}
	.st24{fill:url(#SVGID_25_);}
	.st25{fill:url(#SVGID_26_);}
	.st26{fill:url(#SVGID_27_);}
	.st27{fill:url(#SVGID_28_);}
	.st28{fill:#FFFFFF;}
	.st29{font-family:'KlavikaBold-Bold';}
	.st30{font-size:22.9769px;}
</style>
<g>
	
		<linearGradient id="SVGID_1_" gradientUnits="userSpaceOnUse" x1="-75.1548" y1="139.7343" x2="-59.1526" y2="67.0579" gradientTransform="matrix(1 0 0 -1 0 85.89)">
		<stop  offset="0" style="stop-color:#FC87A9"/>
		<stop  offset="0.2788" style="stop-color:#FD9D94"/>
		<stop  offset="0.8551" style="stop-color:#FFD45E"/>
		<stop  offset="1" style="stop-color:#FFE350"/>
	</linearGradient>
	<path class="st0" d="M-61.9,5.4c-0.2-0.3-0.3-0.6-0.5-0.9C-62.3,4.8-62,5.1-61.9,5.4z"/>
	
		<linearGradient id="SVGID_2_" gradientUnits="userSpaceOnUse" x1="-72.6243" y1="140.2915" x2="-56.6221" y2="67.6151" gradientTransform="matrix(1 0 0 -1 0 85.89)">
		<stop  offset="0" style="stop-color:#FC87A9"/>
		<stop  offset="0.2788" style="stop-color:#FD9D94"/>
		<stop  offset="0.8551" style="stop-color:#FFD45E"/>
		<stop  offset="1" style="stop-color:#FFE350"/>
	</linearGradient>
	<path class="st1" d="M-58,9.7c-0.4-0.3-0.8-0.6-1.1-0.9C-58.8,9.1-58.4,9.4-58,9.7z"/>
	
		<linearGradient id="SVGID_3_" gradientUnits="userSpaceOnUse" x1="-54.9569" y1="144.1816" x2="-38.9547" y2="71.5051" gradientTransform="matrix(1 0 0 -1 0 85.89)">
		<stop  offset="0" style="stop-color:#FC87A9"/>
		<stop  offset="0.2788" style="stop-color:#FD9D94"/>
		<stop  offset="0.8551" style="stop-color:#FFD45E"/>
		<stop  offset="1" style="stop-color:#FFE350"/>
	</linearGradient>
	<path class="st2" d="M-54.4-55.3c0.1,0,0.2-0.1,0.3-0.1C-54.2-55.4-54.3-55.4-54.4-55.3z"/>
	
		<linearGradient id="SVGID_4_" gradientUnits="userSpaceOnUse" x1="-75.6222" y1="139.6314" x2="-59.6201" y2="66.9549" gradientTransform="matrix(1 0 0 -1 0 85.89)">
		<stop  offset="0" style="stop-color:#FC87A9"/>
		<stop  offset="0.2788" style="stop-color:#FD9D94"/>
		<stop  offset="0.8551" style="stop-color:#FFD45E"/>
		<stop  offset="1" style="stop-color:#FFE350"/>
	</linearGradient>
	<path class="st3" d="M-64.1-0.9c0-0.4-0.1-0.7-0.1-1.1C-64.1-1.6-64.1-1.3-64.1-0.9z"/>
	
		<linearGradient id="SVGID_5_" gradientUnits="userSpaceOnUse" x1="-75.6151" y1="139.633" x2="-59.6129" y2="66.9565" gradientTransform="matrix(1 0 0 -1 0 85.89)">
		<stop  offset="0" style="stop-color:#FC87A9"/>
		<stop  offset="0.2788" style="stop-color:#FD9D94"/>
		<stop  offset="0.8551" style="stop-color:#FFD45E"/>
		<stop  offset="1" style="stop-color:#FFE350"/>
	</linearGradient>
	<path class="st4" d="M-63,3.1c-0.1-0.3-0.2-0.6-0.3-1C-63.3,2.5-63.2,2.8-63,3.1z"/>
	
		<linearGradient id="SVGID_6_" gradientUnits="userSpaceOnUse" x1="-56.2646" y1="143.8936" x2="-40.2624" y2="71.2172" gradientTransform="matrix(1 0 0 -1 0 85.89)">
		<stop  offset="0" style="stop-color:#FC87A9"/>
		<stop  offset="0.2788" style="stop-color:#FD9D94"/>
		<stop  offset="0.8551" style="stop-color:#FFD45E"/>
		<stop  offset="1" style="stop-color:#FFE350"/>
	</linearGradient>
	<path class="st5" d="M-55.8-54.7c0.1-0.1,0.3-0.1,0.4-0.2C-55.4-54.9-55.7-54.8-55.8-54.7z"/>
	
		<linearGradient id="SVGID_7_" gradientUnits="userSpaceOnUse" x1="-64.166" y1="142.1539" x2="-48.1638" y2="69.4774" gradientTransform="matrix(1 0 0 -1 0 85.89)">
		<stop  offset="0" style="stop-color:#FC87A9"/>
		<stop  offset="0.2788" style="stop-color:#FD9D94"/>
		<stop  offset="0.8551" style="stop-color:#FFD45E"/>
		<stop  offset="1" style="stop-color:#FFE350"/>
	</linearGradient>
	<path class="st6" d="M-48.4,12.8c-0.3,0-0.7,0-1,0C-49.2,12.8-48.8,12.8-48.4,12.8z"/>
	
		<linearGradient id="SVGID_8_" gradientUnits="userSpaceOnUse" x1="-68.3376" y1="141.2354" x2="-52.3354" y2="68.5589" gradientTransform="matrix(1 0 0 -1 0 85.89)">
		<stop  offset="0" style="stop-color:#FC87A9"/>
		<stop  offset="0.2788" style="stop-color:#FD9D94"/>
		<stop  offset="0.8551" style="stop-color:#FFD45E"/>
		<stop  offset="1" style="stop-color:#FFE350"/>
	</linearGradient>
	<path class="st7" d="M-52.3,12.4c-0.8-0.2-1.6-0.5-2.3-0.8C-53.9,11.9-53.2,12.2-52.3,12.4z"/>
	
		<linearGradient id="SVGID_9_" gradientUnits="userSpaceOnUse" x1="-57.1698" y1="143.6943" x2="-41.1677" y2="71.0179" gradientTransform="matrix(1 0 0 -1 0 85.89)">
		<stop  offset="0" style="stop-color:#FC87A9"/>
		<stop  offset="0.2788" style="stop-color:#FD9D94"/>
		<stop  offset="0.8551" style="stop-color:#FFD45E"/>
		<stop  offset="1" style="stop-color:#FFE350"/>
	</linearGradient>
	<path class="st8" d="M-56.7-54.2c0.2-0.1,0.3-0.2,0.5-0.3C-56.3-54.4-56.5-54.3-56.7-54.2z"/>
	
		<linearGradient id="SVGID_10_" gradientUnits="userSpaceOnUse" x1="-75.6667" y1="139.6216" x2="-59.6645" y2="66.9452" gradientTransform="matrix(1 0 0 -1 0 85.89)">
		<stop  offset="0" style="stop-color:#FC87A9"/>
		<stop  offset="0.2788" style="stop-color:#FD9D94"/>
		<stop  offset="0.8551" style="stop-color:#FFD45E"/>
		<stop  offset="1" style="stop-color:#FFE350"/>
	</linearGradient>
	<path class="st9" d="M-63.8,0.2C-64-0.1-64-0.5-64-0.9C-63.9-0.5-63.9-0.2-63.8,0.2z"/>
	
		<linearGradient id="SVGID_11_" gradientUnits="userSpaceOnUse" x1="-66.5508" y1="141.6287" x2="-50.5486" y2="68.9523" gradientTransform="matrix(1 0 0 -1 0 85.89)">
		<stop  offset="0" style="stop-color:#FC87A9"/>
		<stop  offset="0.2788" style="stop-color:#FD9D94"/>
		<stop  offset="0.8551" style="stop-color:#FFD45E"/>
		<stop  offset="1" style="stop-color:#FFE350"/>
	</linearGradient>
	<path class="st10" d="M-56.9-54c-4.2,2.7-7.1,7.3-7.1,12.9v38.5v-38.5C-64.1-46.7-61.2-51.4-56.9-54z"/>
	
		<linearGradient id="SVGID_12_" gradientUnits="userSpaceOnUse" x1="-73.676" y1="140.0599" x2="-57.6738" y2="67.3835" gradientTransform="matrix(1 0 0 -1 0 85.89)">
		<stop  offset="0" style="stop-color:#FC87A9"/>
		<stop  offset="0.2788" style="stop-color:#FD9D94"/>
		<stop  offset="0.8551" style="stop-color:#FFD45E"/>
		<stop  offset="1" style="stop-color:#FFE350"/>
	</linearGradient>
	<path class="st11" d="M-60.8,7c0.5,0.6,1.1,1.2,1.7,1.8C-59.8,8.2-60.3,7.6-60.8,7z"/>
	
		<linearGradient id="SVGID_13_" gradientUnits="userSpaceOnUse" x1="-49.3953" y1="145.4061" x2="-33.3932" y2="72.7297" gradientTransform="matrix(1 0 0 -1 0 85.89)">
		<stop  offset="0" style="stop-color:#FC87A9"/>
		<stop  offset="0.2788" style="stop-color:#FD9D94"/>
		<stop  offset="0.8551" style="stop-color:#FFD45E"/>
		<stop  offset="1" style="stop-color:#FFE350"/>
	</linearGradient>
	<path class="st12" d="M-48.9-56.4c0.2,0,0.3,0,0.5,0C-48.7-56.4-48.8-56.4-48.9-56.4z"/>
	
		<linearGradient id="SVGID_14_" gradientUnits="userSpaceOnUse" x1="-33.0216" y1="149.0113" x2="-17.0194" y2="76.3349" gradientTransform="matrix(1 0 0 -1 0 85.89)">
		<stop  offset="0" style="stop-color:#FC87A9"/>
		<stop  offset="0.2788" style="stop-color:#FD9D94"/>
		<stop  offset="0.8551" style="stop-color:#FFD45E"/>
		<stop  offset="1" style="stop-color:#FFE350"/>
	</linearGradient>
	<path class="st13" d="M-7.6-35.1L-41-54.4v65.1L-7.6-8.6C2.5-14.4,2.5-29.2-7.6-35.1z"/>
	
		<linearGradient id="SVGID_15_" gradientUnits="userSpaceOnUse" x1="-74.4998" y1="139.8785" x2="-58.4977" y2="67.2021" gradientTransform="matrix(1 0 0 -1 0 85.89)">
		<stop  offset="0" style="stop-color:#FC87A9"/>
		<stop  offset="0.2788" style="stop-color:#FD9D94"/>
		<stop  offset="0.8551" style="stop-color:#FFD45E"/>
		<stop  offset="1" style="stop-color:#FFE350"/>
	</linearGradient>
	<path class="st14" d="M-60.8,7c-0.2-0.3-0.4-0.5-0.6-0.8C-61.3,6.5-61,6.7-60.8,7z"/>
	
		<linearGradient id="SVGID_16_" gradientUnits="userSpaceOnUse" x1="-71.5467" y1="140.5287" x2="-55.5445" y2="67.8523" gradientTransform="matrix(1 0 0 -1 0 85.89)">
		<stop  offset="0" style="stop-color:#FC87A9"/>
		<stop  offset="0.2788" style="stop-color:#FD9D94"/>
		<stop  offset="0.8551" style="stop-color:#FFD45E"/>
		<stop  offset="1" style="stop-color:#FFE350"/>
	</linearGradient>
	<path class="st15" d="M-56.8,10.5c-0.3-0.2-0.5-0.3-0.8-0.5C-57.3,10.2-57.2,10.3-56.8,10.5z"/>
	
		<linearGradient id="SVGID_17_" gradientUnits="userSpaceOnUse" x1="-52.9711" y1="144.6187" x2="-36.969" y2="71.9423" gradientTransform="matrix(1 0 0 -1 0 85.89)">
		<stop  offset="0" style="stop-color:#FC87A9"/>
		<stop  offset="0.2788" style="stop-color:#FD9D94"/>
		<stop  offset="0.8551" style="stop-color:#FFD45E"/>
		<stop  offset="1" style="stop-color:#FFE350"/>
	</linearGradient>
	<path class="st16" d="M-52.9-55.8c0.4-0.1,0.8-0.2,1.2-0.3C-52.3-56-52.5-55.9-52.9-55.8z"/>
	
		<linearGradient id="SVGID_18_" gradientUnits="userSpaceOnUse" x1="-74.761" y1="139.821" x2="-58.7589" y2="67.1445" gradientTransform="matrix(1 0 0 -1 0 85.89)">
		<stop  offset="0" style="stop-color:#FC87A9"/>
		<stop  offset="0.2788" style="stop-color:#FD9D94"/>
		<stop  offset="0.8551" style="stop-color:#FFD45E"/>
		<stop  offset="1" style="stop-color:#FFE350"/>
	</linearGradient>
	<path class="st17" d="M-61.3,6.2c-0.2-0.3-0.4-0.5-0.5-0.8C-61.8,5.6-61.5,5.9-61.3,6.2z"/>
	
		<linearGradient id="SVGID_19_" gradientUnits="userSpaceOnUse" x1="-45.8275" y1="146.1917" x2="-29.8254" y2="73.5152" gradientTransform="matrix(1 0 0 -1 0 85.89)">
		<stop  offset="0" style="stop-color:#FC8574"/>
		<stop  offset="0.2528" style="stop-color:#FC8877;stop-opacity:0.8989"/>
		<stop  offset="0.4425" style="stop-color:#FC9181;stop-opacity:0.823"/>
		<stop  offset="0.6114" style="stop-color:#FDA191;stop-opacity:0.7554"/>
		<stop  offset="0.7684" style="stop-color:#FEB6A7;stop-opacity:0.6927"/>
		<stop  offset="0.9156" style="stop-color:#FED2C5;stop-opacity:0.6337"/>
		<stop  offset="1" style="stop-color:#FFE6D9;stop-opacity:0.6"/>
	</linearGradient>
	<path class="st18" d="M-41-54.4L-41-54.4c-2.4-1.4-4.9-2-7.4-2.1C-46-56.4-43.4-55.7-41-54.4L-41-54.4z"/>
	
		<linearGradient id="SVGID_20_" gradientUnits="userSpaceOnUse" x1="-51.0959" y1="145.0317" x2="-35.0937" y2="72.3552" gradientTransform="matrix(1 0 0 -1 0 85.89)">
		<stop  offset="0" style="stop-color:#FC8574"/>
		<stop  offset="0.2528" style="stop-color:#FC8877;stop-opacity:0.8989"/>
		<stop  offset="0.4425" style="stop-color:#FC9181;stop-opacity:0.823"/>
		<stop  offset="0.6114" style="stop-color:#FDA191;stop-opacity:0.7554"/>
		<stop  offset="0.7684" style="stop-color:#FEB6A7;stop-opacity:0.6927"/>
		<stop  offset="0.9156" style="stop-color:#FED2C5;stop-opacity:0.6337"/>
		<stop  offset="1" style="stop-color:#FFE6D9;stop-opacity:0.6"/>
	</linearGradient>
	<path class="st19" d="M-51.8-56.1c0.9-0.2,1.9-0.3,2.8-0.3C-49.9-56.4-50.8-56.3-51.8-56.1z"/>
	
		<linearGradient id="SVGID_21_" gradientUnits="userSpaceOnUse" x1="-54.1204" y1="144.3657" x2="-38.1183" y2="71.6892" gradientTransform="matrix(1 0 0 -1 0 85.89)">
		<stop  offset="0" style="stop-color:#FC8574"/>
		<stop  offset="0.2528" style="stop-color:#FC8877;stop-opacity:0.8989"/>
		<stop  offset="0.4425" style="stop-color:#FC9181;stop-opacity:0.823"/>
		<stop  offset="0.6114" style="stop-color:#FDA191;stop-opacity:0.7554"/>
		<stop  offset="0.7684" style="stop-color:#FEB6A7;stop-opacity:0.6927"/>
		<stop  offset="0.9156" style="stop-color:#FED2C5;stop-opacity:0.6337"/>
		<stop  offset="1" style="stop-color:#FFE6D9;stop-opacity:0.6"/>
	</linearGradient>
	<path class="st20" d="M-54-55.5c0.4-0.1,0.7-0.3,1.1-0.4C-53.3-55.7-53.8-55.6-54-55.5z"/>
	
		<linearGradient id="SVGID_22_" gradientUnits="userSpaceOnUse" x1="-61.2626" y1="142.7932" x2="-45.2605" y2="70.1166" gradientTransform="matrix(1 0 0 -1 0 85.89)">
		<stop  offset="0" style="stop-color:#FC8574"/>
		<stop  offset="0.2528" style="stop-color:#FC8877;stop-opacity:0.8989"/>
		<stop  offset="0.4425" style="stop-color:#FC9181;stop-opacity:0.823"/>
		<stop  offset="0.6114" style="stop-color:#FDA191;stop-opacity:0.7554"/>
		<stop  offset="0.7684" style="stop-color:#FEB6A7;stop-opacity:0.6927"/>
		<stop  offset="0.9156" style="stop-color:#FED2C5;stop-opacity:0.6337"/>
		<stop  offset="1" style="stop-color:#FFE6D9;stop-opacity:0.6"/>
	</linearGradient>
	<path class="st21" d="M-45.4,12.5c-0.3,0.1-0.7,0.1-1,0.2C-46.2,12.6-45.8,12.6-45.4,12.5z"/>
	
		<linearGradient id="SVGID_23_" gradientUnits="userSpaceOnUse" x1="-56.6881" y1="143.8004" x2="-40.686" y2="71.1239" gradientTransform="matrix(1 0 0 -1 0 85.89)">
		<stop  offset="0" style="stop-color:#FC8574"/>
		<stop  offset="0.2528" style="stop-color:#FC8877;stop-opacity:0.8989"/>
		<stop  offset="0.4425" style="stop-color:#FC9181;stop-opacity:0.823"/>
		<stop  offset="0.6114" style="stop-color:#FDA191;stop-opacity:0.7554"/>
		<stop  offset="0.7684" style="stop-color:#FEB6A7;stop-opacity:0.6927"/>
		<stop  offset="0.9156" style="stop-color:#FED2C5;stop-opacity:0.6337"/>
		<stop  offset="1" style="stop-color:#FFE6D9;stop-opacity:0.6"/>
	</linearGradient>
	<path class="st22" d="M-56.2-54.5c0.1-0.1,0.3-0.1,0.4-0.2C-55.9-54.6-56-54.6-56.2-54.5z"/>
	
		<linearGradient id="SVGID_24_" gradientUnits="userSpaceOnUse" x1="-57.6038" y1="143.5987" x2="-41.6016" y2="70.9223" gradientTransform="matrix(1 0 0 -1 0 85.89)">
		<stop  offset="0" style="stop-color:#FC8574"/>
		<stop  offset="0.2528" style="stop-color:#FC8877;stop-opacity:0.8989"/>
		<stop  offset="0.4425" style="stop-color:#FC9181;stop-opacity:0.823"/>
		<stop  offset="0.6114" style="stop-color:#FDA191;stop-opacity:0.7554"/>
		<stop  offset="0.7684" style="stop-color:#FEB6A7;stop-opacity:0.6927"/>
		<stop  offset="0.9156" style="stop-color:#FED2C5;stop-opacity:0.6337"/>
		<stop  offset="1" style="stop-color:#FFE6D9;stop-opacity:0.6"/>
	</linearGradient>
	<path class="st23" d="M-56.9-54c0.1-0.1,0.2-0.1,0.3-0.2C-56.8-54.2-56.8-54.1-56.9-54z"/>
	
		<linearGradient id="SVGID_25_" gradientUnits="userSpaceOnUse" x1="-55.5817" y1="144.044" x2="-39.5796" y2="71.3676" gradientTransform="matrix(1 0 0 -1 0 85.89)">
		<stop  offset="0" style="stop-color:#FC8574"/>
		<stop  offset="0.2528" style="stop-color:#FC8877;stop-opacity:0.8989"/>
		<stop  offset="0.4425" style="stop-color:#FC9181;stop-opacity:0.823"/>
		<stop  offset="0.6114" style="stop-color:#FDA191;stop-opacity:0.7554"/>
		<stop  offset="0.7684" style="stop-color:#FEB6A7;stop-opacity:0.6927"/>
		<stop  offset="0.9156" style="stop-color:#FED2C5;stop-opacity:0.6337"/>
		<stop  offset="1" style="stop-color:#FFE6D9;stop-opacity:0.6"/>
	</linearGradient>
	<path class="st24" d="M-55.3-54.9c0.3-0.1,0.6-0.3,0.9-0.4C-54.8-55.2-55-55.1-55.3-54.9z"/>
	
		<linearGradient id="SVGID_26_" gradientUnits="userSpaceOnUse" x1="-63.4506" y1="142.3114" x2="-47.4485" y2="69.635" gradientTransform="matrix(1 0 0 -1 0 85.89)">
		<stop  offset="0" style="stop-color:#FC8574"/>
		<stop  offset="0.2528" style="stop-color:#FC8877;stop-opacity:0.8989"/>
		<stop  offset="0.4425" style="stop-color:#FC9181;stop-opacity:0.823"/>
		<stop  offset="0.6114" style="stop-color:#FDA191;stop-opacity:0.7554"/>
		<stop  offset="0.7684" style="stop-color:#FEB6A7;stop-opacity:0.6927"/>
		<stop  offset="0.9156" style="stop-color:#FED2C5;stop-opacity:0.6337"/>
		<stop  offset="1" style="stop-color:#FFE6D9;stop-opacity:0.6"/>
	</linearGradient>
	<path class="st25" d="M-47.9,12.8c-0.2,0-0.3,0-0.5,0C-48.3,12.8-48.2,12.8-47.9,12.8z"/>
	
		<linearGradient id="SVGID_27_" gradientUnits="userSpaceOnUse" x1="-59.0782" y1="143.2741" x2="-43.076" y2="70.5977" gradientTransform="matrix(1 0 0 -1 0 85.89)">
		<stop  offset="0" style="stop-color:#FC87A9"/>
		<stop  offset="0.2788" style="stop-color:#FD9D94"/>
		<stop  offset="0.8551" style="stop-color:#FFD45E"/>
		<stop  offset="1" style="stop-color:#FFE350"/>
	</linearGradient>
	<path class="st26" d="M-41-54.4c-2.4-1.4-4.9-2-7.4-2.1c-0.2,0-0.3,0-0.5,0c-1,0-1.9,0.1-2.8,0.3c-0.4,0.1-0.8,0.2-1.2,0.3
		c-0.4,0.1-0.7,0.2-1.1,0.4c-0.1,0-0.2,0.1-0.3,0.1c-0.3,0.1-0.6,0.3-0.9,0.4c-0.1,0.1-0.3,0.1-0.4,0.2s-0.3,0.1-0.4,0.2
		c-0.2,0.1-0.3,0.2-0.5,0.3c-0.1,0.1-0.2,0.1-0.3,0.2c-4.2,2.7-7.1,7.3-7.1,12.9v38.5c0,0.2,0,0.4,0,0.6c0,0.4,0,0.7,0.1,1.1
		c0,0.4,0.1,0.7,0.1,1.1c0.1,0.7,0.3,1.4,0.5,2c0.1,0.3,0.2,0.6,0.3,1c0.2,0.5,0.4,0.9,0.6,1.4c0.2,0.3,0.3,0.6,0.5,0.9
		s0.3,0.6,0.5,0.8s0.4,0.5,0.6,0.8c0.5,0.6,1.1,1.2,1.7,1.8c0.4,0.3,0.7,0.6,1.1,0.9c0.1,0.1,0.3,0.2,0.4,0.3
		c0.3,0.2,0.5,0.4,0.8,0.5c0.7,0.4,1.4,0.8,2.2,1.1c0.7,0.3,1.5,0.6,2.3,0.8c0.9,0.2,1.9,0.4,2.9,0.4c0.3,0,0.7,0,1,0
		c0.2,0,0.3,0,0.5,0c0.5,0,1-0.1,1.5-0.1c0.3,0,0.7-0.1,1-0.2c1.5-0.3,3-0.9,4.4-1.7L-41-54.4L-41-54.4z"/>
	
		<linearGradient id="SVGID_28_" gradientUnits="userSpaceOnUse" x1="-59.0782" y1="143.2741" x2="-43.076" y2="70.5977" gradientTransform="matrix(1 0 0 -1 0 85.89)">
		<stop  offset="0" style="stop-color:#FC8574"/>
		<stop  offset="0.2528" style="stop-color:#FC8877;stop-opacity:0.8989"/>
		<stop  offset="0.4425" style="stop-color:#FC9181;stop-opacity:0.823"/>
		<stop  offset="0.6114" style="stop-color:#FDA191;stop-opacity:0.7554"/>
		<stop  offset="0.7684" style="stop-color:#FEB6A7;stop-opacity:0.6927"/>
		<stop  offset="0.9156" style="stop-color:#FED2C5;stop-opacity:0.6337"/>
		<stop  offset="1" style="stop-color:#FFE6D9;stop-opacity:0.6"/>
	</linearGradient>
	<path class="st27" d="M-41-54.4c-2.4-1.4-4.9-2-7.4-2.1c-0.2,0-0.3,0-0.5,0c-1,0-1.9,0.1-2.8,0.3c-0.4,0.1-0.8,0.2-1.2,0.3
		c-0.4,0.1-0.7,0.2-1.1,0.4c-0.1,0-0.2,0.1-0.3,0.1c-0.3,0.1-0.6,0.3-0.9,0.4c-0.1,0.1-0.3,0.1-0.4,0.2s-0.3,0.1-0.4,0.2
		c-0.2,0.1-0.3,0.2-0.5,0.3c-0.1,0.1-0.2,0.1-0.3,0.2c-4.2,2.7-7.1,7.3-7.1,12.9v38.5c0,0.2,0,0.4,0,0.6c0,0.4,0,0.7,0.1,1.1
		c0,0.4,0.1,0.7,0.1,1.1c0.1,0.7,0.3,1.4,0.5,2c0.1,0.3,0.2,0.6,0.3,1c0.2,0.5,0.4,0.9,0.6,1.4c0.2,0.3,0.3,0.6,0.5,0.9
		s0.3,0.6,0.5,0.8s0.4,0.5,0.6,0.8c0.5,0.6,1.1,1.2,1.7,1.8c0.4,0.3,0.7,0.6,1.1,0.9c0.1,0.1,0.3,0.2,0.4,0.3
		c0.3,0.2,0.5,0.4,0.8,0.5c0.7,0.4,1.4,0.8,2.2,1.1c0.7,0.3,1.5,0.6,2.3,0.8c0.9,0.2,1.9,0.4,2.9,0.4c0.3,0,0.7,0,1,0
		c0.2,0,0.3,0,0.5,0c0.5,0,1-0.1,1.5-0.1c0.3,0,0.7-0.1,1-0.2c1.5-0.3,3-0.9,4.4-1.7L-41-54.4L-41-54.4z"/>
</g>
<text transform="matrix(1 0 0 1 3.4971 49.5767)" class="st28 st29 st30">USFREE</text>
</svg>
