<svg width="24" height="24" viewBox="0 0 24 24" xmlns="http://www.w3.org/2000/svg">
    <g fill="none" fill-rule="evenodd">
        <path d="M0 0h24v24H0z"/>
        <path d="M2 22h20V2H2z"/>
        <path d="M8.716 4.342c-.033.326-.05.657-.05.991 0 5.523 4.478 10 10 10 .335 0 .666-.016.992-.049-1.277 2.967-4.229 5.05-7.658 5.05-4.595 0-8.333-3.739-8.333-8.334 0-3.43 2.082-6.381 5.049-7.658zm.38-1.913C4.989 3.673 2 7.487 2 12c0 5.523 4.477 10 10 10 4.513 0 8.327-2.99 9.571-7.096l-1.378-1.378a8.353 8.353 0 0 1-1.526.14c-4.595 0-8.334-3.738-8.334-8.333 0-.52.049-1.03.14-1.526L9.097 2.43z" fill="#1D1D1F"/>
    </g>
</svg>
